<svg xmlns="http://www.w3.org/2000/svg" width="1200" height="630" viewBox="0 0 1200 630" font-family="'Plus Jakarta Sans', system-ui, sans-serif">
  <defs>
    <linearGradient id="bg" x1="0" y1="0" x2="1" y2="1">
      <stop offset="0" stop-color="#f6f7fb"/>
      <stop offset="1" stop-color="#eef1fb"/>
    </linearGradient>
    <linearGradient id="mark" x1="0" y1="0" x2="1" y2="1">
      <stop offset="0" stop-color="#5871e6"/>
      <stop offset="1" stop-color="#8fe2c6"/>
    </linearGradient>
    <linearGradient id="ink" x1="0" y1="0" x2="1" y2="0">
      <stop offset="0" stop-color="#5871e6"/>
      <stop offset="1" stop-color="#2fae84"/>
    </linearGradient>
    <pattern id="dots" width="26" height="26" patternUnits="userSpaceOnUse">
      <circle cx="1.5" cy="1.5" r="1.2" fill="#7886b8" opacity="0.22"/>
    </pattern>
  </defs>
  <rect width="1200" height="630" fill="url(#bg)"/>
  <rect width="1200" height="630" fill="url(#dots)"/>
  <circle cx="1050" cy="120" r="220" fill="#8fe2c6" opacity="0.18"/>
  <circle cx="160" cy="560" r="240" fill="#9db4f5" opacity="0.16"/>

  <g transform="translate(96, 150)">
    <rect width="64" height="64" rx="20" fill="url(#mark)"/>
    <circle cx="32" cy="32" r="9" fill="#fff"/>
    <text x="84" y="30" font-size="26" font-weight="700" fill="#171d3d">Cristen Joy</text>
    <text x="84" y="56" font-size="18" font-weight="500" fill="#9aa2c4">AI Automation</text>
  </g>

  <text x="96" y="330" font-size="68" font-weight="700" fill="#171d3d" letter-spacing="-1.5">Cristen Joy Dimaguila</text>
  <text x="96" y="408" font-size="40" font-weight="700" fill="url(#ink)">AI Automation Specialist</text>
  <text x="96" y="470" font-size="26" font-weight="500" fill="#4a5279">Practical workflows with n8n, Apps Script, and AI.</text>

  <g transform="translate(96, 524)" font-size="20" font-weight="600">
    <rect width="190" height="48" rx="12" fill="#e9edfd"/>
    <text x="24" y="31" fill="#5871e6">AI Chatbots</text>
    <rect x="206" width="210" height="48" rx="12" fill="#ddf6ec"/>
    <text x="230" y="31" fill="#1fa37c">Workflow Automation</text>
    <rect x="436" width="220" height="48" rx="12" fill="#f2eafc"/>
    <text x="460" y="31" fill="#8a5fd6">Client Onboarding</text>
  </g>
</svg>
